<?xml version="1.0" encoding="UTF-8" standalone="no"?>
<!-- Created with Inkscape (http://www.inkscape.org/) -->

<svg
   xmlns:dc="http://purl.org/dc/elements/1.1/"
   xmlns:cc="http://creativecommons.org/ns#"
   xmlns:rdf="http://www.w3.org/1999/02/22-rdf-syntax-ns#"
   xmlns:svg="http://www.w3.org/2000/svg"
   xmlns="http://www.w3.org/2000/svg"
   xmlns:sodipodi="http://sodipodi.sourceforge.net/DTD/sodipodi-0.dtd"
   xmlns:inkscape="http://www.inkscape.org/namespaces/inkscape"
   width="90mm"
   height="22mm"
   viewBox="0 0 90 22"
   version="1.1"
   id="svg8"
   inkscape:version="0.92.4 (5da689c313, 2019-01-14)"
   sodipodi:docname="alll-saints-brand.svg">
  <defs
     id="defs2" />
  <sodipodi:namedview
     id="base"
     pagecolor="#ffffff"
     bordercolor="#666666"
     borderopacity="1.0"
     inkscape:pageopacity="0.0"
     inkscape:pageshadow="2"
     inkscape:zoom="0.7"
     inkscape:cx="90.236815"
     inkscape:cy="35.458359"
     inkscape:document-units="mm"
     inkscape:current-layer="layer1"
     showgrid="false"
     showguides="false"
     inkscape:window-width="1600"
     inkscape:window-height="838"
     inkscape:window-x="1592"
     inkscape:window-y="-8"
     inkscape:window-maximized="1" />
  <metadata
     id="metadata5">
    <rdf:RDF>
      <cc:Work
         rdf:about="">
        <dc:format>image/svg+xml</dc:format>
        <dc:type
           rdf:resource="http://purl.org/dc/dcmitype/StillImage" />
        <dc:title></dc:title>
      </cc:Work>
    </rdf:RDF>
  </metadata>
  <g
     inkscape:label="Layer 1"
     inkscape:groupmode="layer"
     id="layer1"
     transform="translate(0,-275)">
    <g
       id="g4581"
       transform="matrix(0.58673485,0,0,0.58673485,-12.38456,216.94844)"
       style="fill:#ffffff">
      <g
         id="g4594"
         transform="translate(-11.740026,4.6898051)"
         style="fill:#ffffff">
        <path
           style="color:#000000;font-style:normal;font-variant:normal;font-weight:normal;font-stretch:normal;font-size:medium;line-height:normal;font-family:sans-serif;font-variant-ligatures:normal;font-variant-position:normal;font-variant-caps:normal;font-variant-numeric:normal;font-variant-alternates:normal;font-feature-settings:normal;text-indent:0;text-align:start;text-decoration:none;text-decoration-line:none;text-decoration-style:solid;text-decoration-color:#000000;letter-spacing:normal;word-spacing:normal;text-transform:none;writing-mode:lr-tb;direction:ltr;text-orientation:mixed;dominant-baseline:auto;baseline-shift:baseline;text-anchor:start;white-space:normal;shape-padding:0;clip-rule:nonzero;display:inline;overflow:visible;visibility:visible;opacity:1;isolation:auto;mix-blend-mode:normal;color-interpolation:sRGB;color-interpolation-filters:linearRGB;solid-color:#000000;solid-opacity:1;vector-effect:none;fill:#ffffff;fill-opacity:1;fill-rule:evenodd;stroke:none;stroke-width:1.696877;stroke-linecap:butt;stroke-linejoin:round;stroke-miterlimit:4;stroke-dasharray:none;stroke-dashoffset:0;stroke-opacity:1;color-rendering:auto;image-rendering:auto;shape-rendering:auto;text-rendering:auto;enable-background:accumulate"
           d="m 51.583433,94.582636 c -10.227021,0 -18.535606,8.308584 -18.535606,18.535604 0,10.22702 8.308585,18.53578 18.535606,18.53578 10.227021,0 18.535781,-8.30876 18.535781,-18.53578 0,-10.22702 -8.30876,-18.535604 -18.535781,-18.535604 z m 0,1.696774 c 9.309961,0 16.839006,7.52887 16.839006,16.83883 0,9.30996 -7.529045,16.83884 -16.839006,16.83884 -9.30996,0 -16.838832,-7.52888 -16.838832,-16.83884 0,-9.30996 7.528872,-16.83883 16.838832,-16.83883 z m 1.76e-4,1.555945 c -2.914616,1.02329 -2.202389,4.341905 -7.084885,4.427045 l -0.0061,1.17976 c 1.645909,1.46098 4.148149,0.22605 4.911963,1.25272 v 6.24448 h -6.244302 c -1.026665,-0.76382 0.20808,-3.26606 -1.252893,-4.91197 l -1.179762,0.006 c -0.08514,4.8825 -3.403753,4.17026 -4.427044,7.08488 1.023291,2.91462 4.3419,2.20239 4.427044,7.08489 l 1.179762,0.006 c 1.460973,-1.64591 0.226228,-4.14797 1.252893,-4.91179 h 6.244303 v 6.2443 c -0.763814,1.02667 -3.266054,-0.20825 -4.911963,1.25272 l 0.0061,1.17994 c 4.882497,0.0851 4.170269,3.40376 7.084885,4.42704 2.914616,-1.02328 2.202382,-4.34189 7.084884,-4.42704 l 0.006,-1.17994 c -1.645906,-1.46097 -4.148146,-0.22605 -4.911962,-1.25272 v -6.2443 h 6.244302 c 1.026664,0.76382 -0.208077,3.26588 1.252893,4.91179 l 1.179762,-0.006 c 0.08515,-4.8825 3.403756,-4.17027 4.427045,-7.08489 -1.023289,-2.91462 -4.341899,-2.20238 -4.427045,-7.08488 l -1.179762,-0.006 c -1.460971,1.6459 -0.22623,4.14814 -1.252894,4.91196 h -6.244302 v -6.24448 c 0.763816,-1.02667 3.266056,0.20826 4.911962,-1.25272 l -0.006,-1.17976 c -4.882502,-0.0851 -4.170267,-3.403754 -7.084884,-4.427045 z"
           id="path834"
           inkscape:connector-curvature="0" />
        <g
           aria-label="All Saints"
           style="font-style:normal;font-weight:normal;font-size:28.69369888px;line-height:1.25;font-family:sans-serif;letter-spacing:0px;word-spacing:0px;fill:#ffffff;fill-opacity:1;stroke:none;stroke-width:0.71734244"
           id="text4547"
           transform="matrix(0.89768703,0,0,0.89768703,6.9516854,11.252973)">
          <path
             d="m 87.891015,123.93811 h 3.816262 l -7.173425,-20.37253 h -3.873649 l -7.173425,20.37253 h 3.816262 l 1.721622,-5.22225 h 7.144731 z m -5.250947,-16.8432 c 0,0 0.430405,2.00856 0.803423,3.15631 l 1.807703,5.4518 h -5.337028 l 1.807703,-5.4518 c 0.401712,-1.14775 0.860811,-3.15631 0.860811,-3.15631 z"
             style="font-style:normal;font-variant:normal;font-weight:600;font-stretch:normal;font-family:'Museo Sans';-inkscape-font-specification:'Museo Sans Semi-Bold';fill:#ffffff;stroke-width:0.71734244"
             id="path4551"
             inkscape:connector-curvature="0" />
          <path
             d="m 93.535603,119.37581 c 0,4.18928 2.496351,4.70577 4.50491,4.70577 0.602568,0 1.147748,-0.0861 1.147748,-0.0861 v -3.185 c 0,0 -0.258243,0.0287 -0.54518,0.0287 -0.946892,0 -1.492072,-0.40171 -1.492072,-2.00856 v -15.26505 h -3.615406 z"
             style="font-style:normal;font-variant:normal;font-weight:600;font-stretch:normal;font-family:'Museo Sans';-inkscape-font-specification:'Museo Sans Semi-Bold';fill:#ffffff;stroke-width:0.71734244"
             id="path4553"
             inkscape:connector-curvature="0" />
          <path
             d="m 101.66175,119.37581 c 0,4.18928 2.49635,4.70577 4.50491,4.70577 0.60257,0 1.14775,-0.0861 1.14775,-0.0861 v -3.185 c 0,0 -0.25825,0.0287 -0.54518,0.0287 -0.94689,0 -1.49208,-0.40171 -1.49208,-2.00856 v -15.26505 h -3.6154 z"
             style="font-style:normal;font-variant:normal;font-weight:600;font-stretch:normal;font-family:'Museo Sans';-inkscape-font-specification:'Museo Sans Semi-Bold';fill:#ffffff;stroke-width:0.71734244"
             id="path4555"
             inkscape:connector-curvature="0" />
          <path
             d="m 115.81895,121.35568 c 0,0 2.66851,2.92675 7.48905,2.92675 4.61969,0 7.23082,-2.95545 7.23082,-6.37 0,-6.48477 -9.23938,-6.02567 -9.23938,-8.60811 0,-1.14774 1.14775,-1.60684 2.18073,-1.60684 2.46765,0 4.5336,1.8077 4.5336,1.8077 l 2.12333,-4.1032 c 0,0 -2.18072,-2.32419 -6.59955,-2.32419 -4.0745,0 -7.2595,2.49635 -7.2595,6.28392 0,6.31262 9.23937,6.22653 9.23937,8.6655 0,1.23383 -1.11906,1.63554 -2.15203,1.63554 -2.58243,0 -4.90662,-2.12333 -4.90662,-2.12333 z"
             style="font-style:normal;font-variant:normal;font-weight:bold;font-stretch:normal;font-family:'Museo Sans';-inkscape-font-specification:'Museo Sans Bold';fill:#ffffff;stroke-width:0.71734244"
             id="path4557"
             inkscape:connector-curvature="0" />
          <path
             d="m 132.29137,119.51928 c 0,2.92676 2.26681,4.76315 5.0214,4.76315 3.09892,0 4.18928,-2.15202 4.18928,-2.15202 h 0.0574 c 0,0 -0.0574,0.4304 -0.0574,0.9182 v 0.8895 h 4.53361 v -9.0959 c 0,-3.75888 -2.49636,-6.02568 -6.65694,-6.02568 -3.6441,0 -6.19784,1.92248 -6.19784,1.92248 l 1.72162,3.50063 c 0,0 2.12333,-1.40599 3.98843,-1.40599 1.23382,0 2.18072,0.40171 2.18072,1.63554 v 0.25824 h -0.20086 c -2.2955,0 -8.57942,0.4878 -8.57942,4.79185 z m 4.99271,-0.25824 c 0,-1.23383 1.8077,-1.69293 3.38585,-1.69293 h 0.4591 v 0.31563 c 0,1.20514 -1.14774,2.61113 -2.43896,2.61113 -0.97559,0 -1.40599,-0.54518 -1.40599,-1.23383 z"
             style="font-style:normal;font-variant:normal;font-weight:bold;font-stretch:normal;font-family:'Museo Sans';-inkscape-font-specification:'Museo Sans Bold';fill:#ffffff;stroke-width:0.71734244"
             id="path4559"
             inkscape:connector-curvature="0" />
          <path
             d="m 149.55198,107.29576 h 4.84923 v -3.87364 h -4.84923 z m -0.0574,16.64235 h 4.96401 v -14.77725 h -4.96401 z"
             style="font-style:normal;font-variant:normal;font-weight:bold;font-stretch:normal;font-family:'Museo Sans';-inkscape-font-specification:'Museo Sans Bold';fill:#ffffff;stroke-width:0.71734244"
             id="path4561"
             inkscape:connector-curvature="0" />
          <path
             d="m 158.12512,123.93811 h 4.96401 v -6.54216 c 0,-0.71735 0.0861,-1.3773 0.28693,-1.95117 0.43041,-1.26253 1.3773,-2.12334 2.92676,-2.12334 1.09036,0 1.63554,0.57388 1.63554,1.95117 v 8.6655 h 4.96401 v -9.5837 c 0,-4.16058 -2.32419,-5.53788 -5.30833,-5.53788 -2.61113,0 -4.01712,1.40599 -4.70577,2.55374 h -0.0574 c 0,0 0.0574,-0.43041 0.0574,-0.9182 v -1.29121 h -4.76315 z"
             style="font-style:normal;font-variant:normal;font-weight:bold;font-stretch:normal;font-family:'Museo Sans';-inkscape-font-specification:'Museo Sans Bold';fill:#ffffff;stroke-width:0.71734244"
             id="path4563"
             inkscape:connector-curvature="0" />
          <path
             d="m 177.14097,118.48631 c 0,4.96401 4.5623,5.59527 6.91518,5.59527 0.80343,0 1.34861,-0.0861 1.34861,-0.0861 v -4.30406 c 0,0 -0.25824,0.0287 -0.65996,0.0287 -0.94689,0 -2.63982,-0.22955 -2.63982,-1.89379 v -4.5336 h 3.09892 v -3.87365 h -3.09892 v -4.24667 h -4.82054 v 4.24667 h -2.03725 v 3.87365 h 1.89378 z"
             style="font-style:normal;font-variant:normal;font-weight:bold;font-stretch:normal;font-family:'Museo Sans';-inkscape-font-specification:'Museo Sans Bold';fill:#ffffff;stroke-width:0.71734244"
             id="path4565"
             inkscape:connector-curvature="0" />
          <path
             d="m 187.12817,122.10171 c 0,0 2.20942,2.18072 5.9109,2.18072 3.81626,0 6.05437,-2.15202 6.05437,-4.67707 0,-4.76315 -6.91518,-4.93531 -6.91518,-6.05437 0,-0.51649 0.71734,-0.71734 1.46338,-0.71734 2.06595,0 3.50063,1.20513 3.50063,1.20513 l 1.69293,-3.52932 c 0,0 -1.75032,-1.69293 -5.19356,-1.69293 -3.41455,0 -6.08306,1.72162 -6.08306,4.50491 0,4.82054 6.91518,4.96401 6.91518,6.25523 0,0.48779 -0.71734,0.68865 -1.46338,0.68865 -2.12333,0 -3.75888,-1.49208 -3.75888,-1.49208 z"
             style="font-style:normal;font-variant:normal;font-weight:bold;font-stretch:normal;font-family:'Museo Sans';-inkscape-font-specification:'Museo Sans Bold';fill:#ffffff;stroke-width:0.71734244"
             id="path4567"
             inkscape:connector-curvature="0" />
        </g>
      </g>
    </g>
  </g>
</svg>
